M48
;Layer_Color=9474304
;FILE_FORMAT=4:4
METRIC,LZ
;TYPE=PLATED
T1F00S00C0.6000
T2F00S00C0.7000
T3F00S00C0.8000
T4F00S00C1.0000
T5F00S00C1.2000
%
T01
X0106045Y008763
X0109855
X0113665
X0117475
Y009271
X0113665
X0109855
X0106045
T02
X008001Y006858
X008382Y007112
X008763
X0092075
X009652
Y00762
X0092075
X008763
X008382
X008001Y007874
X00762
Y006858
Y008255
Y009271
X008001
X008382
X008763
Y008255
X008382
X008001
X012192Y008763
Y009271
T03
X009525Y0099695
Y0101727
T04
X008763Y0067945
X009271Y008382
Y008636
Y00889
Y009144
X010033
Y00889
Y008636
Y008382
X01052999Y00851807
X01078399
X01103799
X01173042
X01198441
X01223841
X012827Y008509
Y009017
Y008001
T05
X012827Y006604
Y007112
Y00762
X011392Y009779
X010922
X010452
Y010259
X010922
X011392
X008509Y0102235
X008001
X012192Y01004207
Y00953407
X012827
Y01004207
Y01055007
X012192
M30
